<?xml version="1.0" encoding="UTF-8"?>
<svg width="32" height="32" viewBox="0 0 32 32" xmlns="http://www.w3.org/2000/svg">
  <!-- Fond du favicon -->
  <rect width="32" height="32" rx="4" fill="#2c3e50" />
  
  <!-- Graphique de trading stylisé -->
  <polyline points="5,20 9,15 13,18 17,10 21,13 25,8" stroke="#4CAF50" stroke-width="2" fill="none" />
  <polyline points="5,15 9,18 13,12 17,15 21,8 25,12" stroke="#F44336" stroke-width="2" fill="none" />
  
  <!-- Points de données -->
  <circle cx="13" cy="18" r="1.5" fill="#4CAF50" />
  <circle cx="21" cy="13" r="1.5" fill="#4CAF50" />
  <circle cx="13" cy="12" r="1.5" fill="#F44336" />
  <circle cx="21" cy="8" r="1.5" fill="#F44336" />
  
  <!-- Initiale S stylisée -->
  <path d="M16,16 C18,16 20,15 20,13 C20,11 18,10 16,10 C14,10 12,11 12,13 M16,16 C14,16 12,17 12,19 C12,21 14,22 16,22 C18,22 20,21 20,19" stroke="#ffffff" stroke-width="2" fill="none" stroke-linecap="round" />
</svg>
